#!OML:ASF H:\Terrain\Patient Classification 1\Walking\steve\steve.ASF
:FULLY-SPECIFIED
:DEGREES
93
root 7.44483 15.2584 -20.1099 5.59131 1.88218 3.95202
lowerback 0.615497 -0.542043 -2.55971
upperback -2.94757 -0.748835 1.26221
thorax -3.32849 -0.284851 2.76171
lowerneck -9.60847 -0.202272 -2.33759
upperneck 14.0748 0.214746 -0.781775
head 5.83877 -0.0773081 0.154367
rclavicle 1.31229e-015 -6.36111e-015
rhumerus -85.2822 -29.0017 -20.2188
rradius 14.0104
rwrist 38.2017
rhand -15.4182 -40.5343
rfingers 7.12502
rthumb 10.7614 -70.2386
lclavicle 1.31229e-015 -6.36111e-015
lhumerus -11.6154 -6.83204 83.4827
lradius 57.1756
lwrist 29.1831
lhand -29.7677 -17.047
lfingers 7.12502
lthumb -3.09316 12.9104
rfemur -43.8265 1.5472 19.1471
rtibia 35.5754
rfoot -5.10723 0.111132
rtoes 6.55719
lfemur 16.4079 -1.02506 -26.223
ltibia 19.7616
lfoot 3.85465 -5.86333
ltoes -8.90375
94
root 7.45562 15.2646 -19.8732 5.43452 1.71448 3.69119
lowerback 0.906921 -0.510416 -1.95753
upperback -2.96912 -0.69113 1.44151
thorax -3.5227 -0.266851 2.61022
lowerneck -9.93178 -0.190047 -2.05878
upperneck 14.2883 0.316189 -1.53171
head 5.96324 -0.0738552 -0.120278
rclavicle 4.72424e-015 -2.06736e-014
rhumerus -83.8962 -28.8403 -22.5862
rradius 14.3122
rwrist 36.4477
rhand -15.3317 -40.8552
rfingers 7.12502
rthumb 10.8449 -70.5552
lclavicle 4.72424e-015 -2.06736e-014
lhumerus -12.8975 -6.42549 83.9455
lradius 57.9532
lwrist 29.3793
lhand -30.263 -17.1313
lfingers 7.12502
lthumb -3.57141 12.8185
rfemur -43.713 1.38427 19.6199
rtibia 37.1988
rfoot -5.39065 0.729408
rtoes 6.57293
lfemur 14.6974 -1.08202 -26.0449
ltibia 23.9405
lfoot 6.3234 -3.99837
ltoes -6.60002
95
root 7.47088 15.2802 -19.6321 5.26732 1.45944 3.40599
lowerback 1.10407 -0.414337 -1.2854
upperback -2.95789 -0.540043 1.61172
thorax -3.63478 -0.206703 2.4043
lowerneck -9.91872 -0.18966 -2.11167
upperneck 14.113 0.386045 -1.94954
head 5.90739 -0.0721203 -0.237721
rclavicle 9.22485e-015 6.36111e-015
rhumerus -83.0022 -29.0738 -23.4564
rradius 14.1888
rwrist 35.8126
rhand -15.1681 -41.0712
rfingers 7.12502
rthumb 11.0026 -70.7629
lclavicle 9.22485e-015 6.36111e-015
lhumerus -14.4113 -6.2611 84.4547
lradius 58.883
lwrist 29.7489
lhand -30.61 -16.9048
lfingers 7.12502
lthumb -3.90657 13.0391
rfemur -43.4762 1.04666 20.2073
rtibia 38.7136
rfoot -5.51254 1.9334
rtoes 8.74835
lfemur 13.0969 -0.985585 -25.7942
ltibia 27.7843
lfoot 9.24692 -1.74683
ltoes -4.29818
96
root 7.4765 15.2874 -19.3965 5.07237 0.960579 3.38233
lowerback 1.34991 -0.243584 -1.01657
upperback -2.90632 -0.302229 1.69258
thorax -3.73328 -0.0940082 2.32828
lowerneck -9.59687 -0.104218 -2.44706
upperneck 13.6252 0.521765 -1.87666
head 5.69861 -0.00876892 -0.148352
rclavicle 6.05983e-015 9.54166e-015
rhumerus -82.4972 -29.5239 -23.7582
rradius 14.3025
rwrist 35.688
rhand -14.825 -40.894
rfingers 7.12502
rthumb 11.3335 -70.5678
lclavicle 6.05983e-015 9.54166e-015
lhumerus -16.1559 -6.39525 84.8383
lradius 60.0544
lwrist 30.4269
lhand -30.7449 -16.5428
lfingers 7.12502
lthumb -4.03678 13.3987
rfemur -43.1504 0.980311 20.5032
rtibia 40.0283
rfoot -5.61818 3.10074
rtoes 10.0552
lfemur 11.6838 -0.352295 -25.6867
ltibia 31.3303
lfoot 12.3837 -0.170391
ltoes -3.46694
97
root 7.47727 15.2955 -19.1627 4.83569 0.400593 3.30828
lowerback 1.59968 -0.0840942 -0.819223
upperback -2.7763 -0.0813132 1.77284
thorax -3.75056 0.0108471 2.29061
lowerneck -9.72679 -0.0046633 -2.54461
upperneck 13.5469 0.673712 -1.86841
head 5.69585 0.0613312 -0.118071
rclavicle 4.84072e-015 1.59028e-015
rhumerus -81.3548 -29.8658 -25.5469
rradius 14.7279
rwrist 34.5069
rhand -14.7459 -40.9275
rfingers 7.12502
rthumb 11.4098 -70.5971
lclavicle 4.84072e-015 1.59028e-015
lhumerus -17.6252 -6.35201 85.1591
lradius 60.9367
lwrist 31.0011
lhand -30.7403 -16.8422
lfingers 7.12502
lthumb -4.03233 13.0994
rfemur -42.6365 1.02576 20.8792
rtibia 41.0965
rfoot -5.85495 3.77473
rtoes 7.98598
lfemur 10.4346 0.284693 -25.5223
ltibia 34.6872
lfoot 15.1604 0.90665
ltoes -2.41247
98
root 7.47849 15.3161 -18.9227 4.60596 -0.0339977 2.77415
lowerback 1.76626 0.104195 -0.147788
upperback -2.68717 0.199537 1.94761
thorax -3.76335 0.133861 2.07991
lowerneck -10.2118 -0.0671265 -2.33659
upperneck 13.9742 0.638797 -2.22783
head 5.91553 0.0179992 -0.268535
rclavicle 3.79399e-015 7.15625e-015
rhumerus -79.9036 -29.9445 -28.1234
rradius 15.0791
rwrist 32.442
rhand -15.1074 -41.1392
rfingers 7.12502
rthumb 11.0611 -70.8278
lclavicle 3.79399e-015 7.15625e-015
lhumerus -18.8188 -6.35306 85.6593
lradius 61.2174
lwrist 31.2611
lhand -30.8832 -16.954
lfingers 7.12502
lthumb -4.17035 12.9849
rfemur -41.8731 1.11122 21.707
rtibia 41.9041
rfoot -6.42959 4.24754
rtoes 5.22449
lfemur 9.25639 0.657512 -24.8444
ltibia 37.8833
lfoot 17.2842 2.54741
ltoes 0.645972
99
root 7.47596 15.355 -18.6897 4.36733 -0.0778863 2.36843
lowerback 2.02213 0.185381 0.352754
upperback -2.64444 0.334755 2.10691
thorax -3.86731 0.189627 1.95616
lowerneck -10.2028 -0.158245 -2.24416
upperneck 13.9604 0.538157 -2.48098
head 5.91089 -0.0450099 -0.371665
rclavicle -1.42876e-015 2.78299e-014
rhumerus -78.716 -30.1893 -29.847
rradius 15.1384
rwrist 31.0197
rhand -15.181 -40.952
rfingers 7.12502
rthumb 10.9902 -70.6443
lclavicle -1.42876e-015 2.78299e-014
lhumerus -19.7527 -6.29991 86.2308
lradius 60.8409
lwrist 31.3292
lhand -30.7855 -16.5654
lfingers 7.12502
lthumb -4.07596 13.3754
rfemur -40.8939 1.26692 22.1919
rtibia 42.4921
rfoot -7.38678 4.52318
rtoes 5.52818
lfemur 7.96141 0.780306 -24.2494
ltibia 40.961
lfoot 19.1229 4.62778
ltoes 0.851108
100
root 7.46405 15.4099 -18.4639 4.17704 0.0740793 2.39381
lowerback 2.25014 0.20776 0.304264
upperback -2.60054 0.368254 2.18252
thorax -3.95313 0.209059 2.05946
lowerneck -10.0794 -0.238252 -2.37888
upperneck 13.8636 0.441735 -2.46391
head 5.85914 -0.0950019 -0.351549
rclavicle -4.27076e-015 3.18055e-015
rhumerus -77.0043 -30.2826 -32.3502
rradius 15.1727
rwrist 28.822
rhand -15.0392 -40.696
rfingers 7.12502
rthumb 11.1269 -70.381
lclavicle -4.27076e-015 3.18055e-015
lhumerus -20.667 -6.33415 86.787
lradius 60.4325
lwrist 31.4763
lhand -30.6548 -16.2561
lfingers 7.12502
lthumb -3.94975 13.6871
rfemur -39.869 1.44422 22.1428
rtibia 42.9122
rfoot -8.39668 4.53857
rtoes 6.25517
lfemur 6.4434 0.752863 -24.1332
ltibia 44.0191
lfoot 20.1372 8.31507
ltoes 2.56888
101
root 7.44976 15.4622 -18.2341 4.06703 0.145213 2.47121
lowerback 2.2649 0.241646 0.2118
upperback -2.4731 0.405818 2.1388
thorax -3.83082 0.228715 2.06359
lowerneck -10.555 -0.277936 -2.21912
upperneck 14.1669 0.39013 -2.48343
head 6.03629 -0.121737 -0.389672
rclavicle -3.97802e-015 3.97569e-015
rhumerus -74.5601 -29.9678 -36.592
rradius 15.5386
rwrist 25.3043
rhand -15.1693 -40.7667
rfingers 7.12502
rthumb 11.0014 -70.4584
lclavicle -3.97802e-015 3.97569e-015
lhumerus -21.6698 -6.63134 87.1361
lradius 60.2556
lwrist 31.6881
lhand -30.5975 -16.1919
lfingers 7.12502
lthumb -3.89448 13.7522
rfemur -38.912 1.29847 22.1719
rtibia 43.2176
rfoot -9.09119 4.7466
rtoes 6.37818
lfemur 4.81223 0.878224 -24.0707
ltibia 47.0352
lfoot 19.3769 12.1799
ltoes 4.86861
